<?xml version="1.0" encoding="utf-8"?>
<!-- Generator: Adobe Illustrator 25.4.1, SVG Export Plug-In . SVG Version: 6.00 Build 0)  -->
<svg version="1.1" id="Capa_1" xmlns="http://www.w3.org/2000/svg"
    xmlns:xlink="http://www.w3.org/1999/xlink" x="0px" y="0px"
    viewBox="0 0 95.85 91.89" style="enable-background:new 0 0 95.85 91.89;" xml:space="preserve">
<style type="text/css">
	.st0{fill:#887151;}
	.st1{fill:#FFFFFF;}
</style>
<circle class="st0" cx="47.92" cy="44.41" r="39.83"/>
<path class="st0" d="M87.76,68.31l0,15.9l-15.97,0C78.63,80.6,84.31,74.87,87.76,68.31z"/>
<path class="st1" d="M72.91,57.21c-0.95,0-1.91-0.04-2.85,0.03c-0.24,0.02-0.51,0.38-0.67,0.64c-2.99,4.95-7.14,8.53-12.54,10.64
	c-11.21,4.38-24.23-0.15-30.26-10.56c-0.32-0.55-0.64-0.82-1.31-0.77c-0.98,0.07-1.98,0.04-2.96-0.01c-5.07-0.22-8.95-4.12-9.12-9.2
	c-0.06-1.75-0.04-3.5,0-5.24c0.05-2.2,0.86-4.14,2.3-5.77c0.69-0.78,1.14-1.6,1.5-2.58c2.72-7.48,7.48-13.33,14.37-17.37
	c15.13-8.87,34.43-4.3,44.03,10.37c1.54,2.35,2.7,4.88,3.67,7.5c0.21,0.56,0.52,1.13,0.93,1.57c1.72,1.86,2.67,4.03,2.71,6.56
	c0.03,1.75,0.04,3.5-0.03,5.24c-0.09,2.48-1.15,4.55-2.86,6.32c-0.3,0.31-0.56,0.71-0.7,1.11c-2.84,8.12-8.02,14.27-15.52,18.49
	c-0.94,0.53-1.88,0.6-2.8-0.01c-0.88-0.6-1.2-1.47-1.05-2.51c0.14-0.92,0.76-1.46,1.54-1.89c3.47-1.94,6.47-4.45,8.83-7.65
	c1.1-1.49,2.03-3.1,3.03-4.65C73.06,57.38,72.99,57.29,72.91,57.21z M28.26,42.6c-0.06,0.97-0.16,1.83-0.16,2.7
	c0,11.51,9.63,20.54,21.13,19.81c11.12-0.7,19.52-10.54,18.49-21.64c-0.06-0.59-0.22-0.81-0.87-0.78
	c-6.57,0.25-12.71-1.25-18.39-4.57c-0.54-0.32-0.94-0.27-1.47-0.02c-3.11,1.49-6.32,2.72-9.69,3.49
	C34.36,42.26,31.41,42.64,28.26,42.6z M22.81,33.53c0.11,0.03,0.16,0.06,0.21,0.06c0.73,0.01,1.47-0.03,2.2,0.02
	c0.62,0.05,0.94-0.18,1.25-0.72c2.65-4.58,6.38-8.04,11.23-10.16c7.82-3.41,15.51-2.98,22.91,1.27c3.74,2.15,6.65,5.2,8.84,8.93
	c0.15,0.26,0.43,0.62,0.67,0.64c0.97,0.07,1.95,0.03,2.96,0.03c-3.93-8.87-13.72-16.46-25.99-16.11
	C35.41,17.82,26.21,25.5,22.81,33.53z M42.11,26.47c6.05,7.39,16,11.9,24.02,11.11C62.19,27.69,50.67,23.36,42.11,26.47z
	 M42.94,34.5c-2.02-1.91-3.97-3.76-5.98-5.67c-2.89,1.7-6.82,6.42-7.09,8.73C34.45,37.49,38.75,36.3,42.94,34.5z M23.05,52.16
	c0-4.52,0-8.99,0-13.45c-2.43-0.27-4.69,1.53-4.81,3.88c-0.09,1.88-0.09,3.78,0,5.66C18.36,50.62,20.6,52.41,23.05,52.16z
	 M72.83,52.16c2.27,0.23,4.44-1.18,4.7-3.39c0.25-2.22,0.25-4.51-0.01-6.73c-0.26-2.2-2.68-3.71-4.68-3.27
	C72.83,43.21,72.83,47.66,72.83,52.16z"/>
</svg>