<svg width="26" height="24" viewBox="0 0 26 24" fill="none" xmlns="http://www.w3.org/2000/svg">
    <path
        d="M12.7131 2.22551L15.199 9.10131L15.3734 9.58359L15.8852 9.60064L23.1833 9.84348L17.4216 14.3355L17.0175 14.6507L17.1594 15.1436L19.1841 22.1694L13.1375 18.0703L12.7134 17.7827L12.2893 18.0703L6.24274 22.1694L8.26748 15.1436L8.40935 14.6507L8.00531 14.3355L2.24358 9.84348L9.54164 9.60064L10.0535 9.58359L10.2279 9.10131L12.7138 2.22551M12.7131 -0.000244141L9.51592 8.84331L0.129181 9.15549L7.53998 14.9334L4.93604 23.9698L12.7134 18.6973L20.4908 23.9698L17.8869 14.9334L25.2977 9.15549L15.9109 8.84331L12.7131 -0.000244141Z"
        fill="white" />
</svg>
    