<svg id="Capa_1" data-name="Capa 1" xmlns="http://www.w3.org/2000/svg" viewBox="0 0 189 61.35"><defs><style>.cls-1{fill:#8b6f4b;}.cls-2{fill:#ab0a3d;}.cls-3{fill:#007853;}</style></defs><path class="cls-1" d="M16.07,1.33H1.28V37.87h9.56V27.43h4.73c8.58,0,14.84-4.54,14.84-13.15v-.11c0-8.09-5.62-12.84-14.34-12.84m4.78,13.41c0,2.88-2.07,4.76-5.48,4.76H10.84V9.84h4.49c3.45,0,5.52,1.67,5.52,4.8Z"/><path class="cls-1" d="M12.12,39.15H0V.05H16.07c9.63,0,15.62,5.41,15.62,14.12v.11c0,8.76-6.33,14.43-16.12,14.43H12.12ZM2.55,36.6h7V26.16h6c8.49,0,13.56-4.44,13.56-11.88v-.11c0-7.24-4.88-11.56-13.06-11.56H2.55ZM15.38,20.78H9.56V8.56h5.77c4.25,0,6.79,2.27,6.79,6.08v.1C22.12,18.35,19.41,20.78,15.38,20.78Zm-3.26-2.55h3.26c2.66,0,4.19-1.27,4.19-3.49v-.1c0-2.34-1.43-3.52-4.24-3.52H12.12Z"/><path class="cls-1" d="M66.86,1.33H83.17c5.28,0,8.92,1.46,11.24,4a11.69,11.69,0,0,1,3.06,8.5v.11a11.57,11.57,0,0,1-7.1,11.23L98.6,37.87h-11l-7-11.06H76.42V37.87H66.86ZM82.73,18.87c3.25,0,5.12-1.67,5.12-4.33v-.11c0-2.87-2-4.33-5.17-4.33H76.42v8.77Z"/><path class="cls-1" d="M100.94,39.15H86.85L79.9,28.08H77.69V39.15H65.58V.05H83.17c5.39,0,9.49,1.48,12.18,4.38a13,13,0,0,1,3.39,9.37v.11a12.82,12.82,0,0,1-6.53,11.72ZM88.26,36.6h8l-7.76-12L89.84,24a10.31,10.31,0,0,0,6.35-10.06V13.8a10.36,10.36,0,0,0-2.7-7.61c-2.2-2.39-5.67-3.58-10.32-3.58h-15v34h7V25.53h6.17ZM82.73,20.15H75.14V8.82h7.54c4,0,6.45,2.1,6.45,5.61v.11C89.13,18,86.62,20.15,82.73,20.15Zm-5-2.55h5c1.43,0,3.85-.4,3.85-3.06v-.11c0-.75,0-3.06-3.9-3.06h-5Z"/><polygon class="cls-1" points="129.03 1.33 120.79 15.48 112.56 1.33 102.45 1.33 102.45 37.88 111.82 37.88 111.82 16.99 118.44 28.78 122.94 28.78 129.62 16.89 129.62 37.88 139.13 37.88 139.13 1.33 129.03 1.33"/><path class="cls-1" d="M140.41,39.15H128.34V21.77l-4.65,8.29h-6l-4.59-8.18V39.15H101.18V.05H113.3l7.49,12.89L128.29.05h12.12ZM130.9,36.6h6.95v-34h-8.09l-9,15.4-9-15.4h-8.1v34h6.82V12.11l8.64,15.4h3L130.9,12Z"/><path class="cls-1" d="M50.51,1.28H41.3L26.61,37.87h10l2.47-6.52H52.44L55,37.87H65.2ZM41.94,23.47l3.89-10.4,3.85,10.4Z"/><path class="cls-1" d="M67.09,39.15h-13l-2.52-6.52H40l-2.46,6.52H24.72L40.43,0h11ZM55.83,36.6h7.49L49.65,2.55H42.16L28.5,36.6h7.28l2.47-6.52H53.32ZM51.51,24.75H40.1L45.84,9.42Zm-7.73-2.56h4.06l-2-5.46Z"/><path class="cls-1" d="M165,1.28h-9.22L141.08,37.87h10.06l2.46-6.52h13.31l2.52,6.52h10.25Zm-8.58,22.19,3.9-10.4,3.84,10.4Z"/><path class="cls-1" d="M181.57,39.15h-13L166,32.63H154.48L152,39.15H139.19L154.91,0h11ZM170.3,36.6h7.49L164.13,2.55h-7.5L143,36.6h7.29l2.46-6.52h15.07ZM166,24.75H154.57l5.74-15.33Zm-7.73-2.56h4.07l-2-5.46Z"/><path class="cls-1" d="M50.51,1.28H41.3L26.61,37.87h10l2.47-6.52H52.44L55,37.87H65.2ZM41.94,23.47l3.89-10.4,3.85,10.4Z"/><path class="cls-1" d="M67.09,39.15h-13l-2.52-6.52H40l-2.46,6.52H24.72L40.43,0h11ZM55.83,36.6h7.49L49.65,2.55H42.16L28.5,36.6h7.28l2.47-6.52H53.32ZM51.51,24.75H40.1L45.84,9.42Zm-7.73-2.56h4.06l-2-5.46Z"/><path class="cls-2" d="M16.07,1.33H1.28V37.87h9.56V27.43h4.73c8.58,0,14.84-4.54,14.84-13.15v-.11c0-8.09-5.62-12.84-14.34-12.84m4.78,13.41c0,2.88-2.07,4.76-5.48,4.76H10.84V9.84h4.49c3.45,0,5.52,1.67,5.52,4.8Z"/><path class="cls-2" d="M66.86,1.33H83.17c5.28,0,8.92,1.46,11.24,4a11.69,11.69,0,0,1,3.06,8.5v.11a11.57,11.57,0,0,1-7.1,11.23L98.6,37.87h-11l-7-11.06H76.42V37.87H66.86ZM82.73,18.87c3.25,0,5.12-1.67,5.12-4.33v-.11c0-2.87-2-4.33-5.17-4.33H76.42v8.77Z"/><polygon class="cls-3" points="129.03 1.33 120.79 15.48 112.56 1.33 102.45 1.33 102.45 37.88 111.82 37.88 111.82 16.99 118.44 28.78 122.94 28.78 129.62 16.89 129.62 37.88 139.13 37.88 139.13 1.33 129.03 1.33"/><path class="cls-3" d="M50.51,1.28H41.3L26.61,37.87h10l2.47-6.52H52.44L55,37.87H65.2ZM41.94,23.47l3.89-10.4,3.85,10.4Z"/><path class="cls-1" d="M183.92,37.62v0a2.08,2.08,0,1,1,4.16,0h0A2.1,2.1,0,0,1,186,39.7a2.07,2.07,0,0,1-2.08-2.08m3.74,0h0A1.65,1.65,0,0,0,186,35.92a1.67,1.67,0,0,0-1.67,1.69h0A1.65,1.65,0,0,0,186,39.29a1.67,1.67,0,0,0,1.66-1.68m-2.4-1h.87c.42,0,.73.21.73.61a.57.57,0,0,1-.44.58l.51.72h-.45l-.45-.65h-.4v.65h-.37Zm.83,1c.25,0,.39-.13.39-.31s-.14-.31-.39-.31h-.46v.62Z"/><path class="cls-2" d="M165,1.28h-9.22L141.08,37.87h10.06l2.46-6.52h13.31l2.52,6.52h10.25Zm-8.58,22.19,3.9-10.4,3.84,10.4Z"/><path class="cls-1" d="M11.27,38.3H.85V.9H16.07C25.18.9,30.84,6,30.84,14.17v.11c0,8.37-5.85,13.58-15.27,13.58h-4.3ZM1.7,37.45h8.72V27h5.15C24.46,27,30,22.13,30,14.28v-.11C30,6.51,24.65,1.76,16.07,1.76H1.7ZM15.38,19.93h-5V9.41h4.91c3.77,0,5.94,1.91,5.94,5.23v.1C21.27,17.89,19,19.93,15.38,19.93Zm-4.11-.85h4.11c3.11,0,5-1.66,5-4.34v-.1c0-2.82-1.81-4.37-5.09-4.37H11.27Z"/><path class="cls-1" d="M99.38,38.3H87.32L80.37,27.23H76.84V38.3H66.43V.9H83.17c5.15,0,9,1.39,11.55,4.11a12.16,12.16,0,0,1,3.17,8.79v.11c0,5.26-2.38,9.2-6.9,11.41Zm-11.59-.85h10L89.74,25l.45-.2C94.67,22.73,97,19,97,13.91V13.8A11.37,11.37,0,0,0,94.1,5.59c-2.35-2.55-6-3.83-10.93-3.83H67.28V37.45H76V26.38h4.85ZM82.73,19.3H76V9.67h6.69c3.56,0,5.6,1.74,5.6,4.76v.11C88.28,17.47,86.15,19.3,82.73,19.3Zm-5.89-.85h5.89c3,0,4.7-1.43,4.7-3.91v-.11c0-3.4-3-3.91-4.75-3.91H76.84Z"/><path class="cls-1" d="M139.56,38.3H129.19V18.52l-6,10.69h-5l-5.94-10.59V38.3H102V.9h10.78l8,13.73,8-13.73h10.78ZM130,37.45h8.67V1.76h-9.44l-8.48,14.56L112.32,1.76h-9.44V37.45h8.52V15.36l7.29,13h4L130,15.26Z"/><path class="cls-1" d="M65.83,38.3H54.66l-2.51-6.52H39.42L37,38.3H26L41,.85H50.8Zm-10.59-.85h9.33L50.23,1.7H41.59L27.24,37.45h9.13l2.46-6.52h13.9Zm-5-13.56h-9l4.5-12ZM42.55,23h6.52l-3.24-8.75Z"/><path class="cls-1" d="M180.31,38.3H169.13l-2.51-6.52H153.9l-2.47,6.52h-11l15-37.45h9.8Zm-10.59-.85h9.33L164.7,1.7h-8.64L141.71,37.45h9.14l2.46-6.52h13.9Zm-5-13.56h-9l4.51-12ZM157,23h6.51l-3.24-8.75Z"/><path class="cls-1" d="M151.54,51.22C147.76,34.49,84,48,84,48c-39.68,7-62.17,4.2-62.17,4.2.33,2.42,16.66,15.35,74.05,5.45,0,0,42.67-8.64,55.3-6.45Z"/><path class="cls-2" d="M149.53,49.85c-7.86-11.94-63.62-.53-63.62-.53-43.26,7.48-61.13,4.31-61.13,4.31,1.59,1.1,18.78,11.47,72.4,2.21,0,0,38.12-8,52.35-6"/></svg>