<svg id="Capa_1" data-name="Capa 1" xmlns="http://www.w3.org/2000/svg" viewBox="0 0 187.72 58.38"><defs><style>.cls-1{fill:#8b6f4b;}</style></defs><path class="cls-1" d="M182.64,36.34h0a2.08,2.08,0,0,1,4.16,0v0a2.08,2.08,0,1,1-4.16,0m3.75,0h0a1.67,1.67,0,1,0-3.34,0h0a1.67,1.67,0,1,0,3.34,0m-2.41-1h.87c.42,0,.74.21.74.61a.59.59,0,0,1-.45.59l.51.72h-.44l-.46-.66h-.4v.66H184Zm.84,1c.25,0,.39-.13.39-.32s-.14-.31-.39-.31h-.47v.63Z"/><path class="cls-1" d="M14.79.05H0V36.6H9.56V26.16H14.3c8.57,0,14.83-4.54,14.83-13.16v-.11C29.13,4.8,23.51.05,14.79.05m4.78,13.42c0,2.87-2.07,4.76-5.47,4.76H9.56V8.56h4.49c3.45,0,5.52,1.67,5.52,4.8Z"/><path class="cls-1" d="M65.58.05H81.89c5.28,0,8.93,1.47,11.24,4a11.72,11.72,0,0,1,3.06,8.51v.1a11.56,11.56,0,0,1-7.1,11.23L97.32,36.6h-11l-7-11.07H75.14V36.6H65.58ZM81.45,17.6c3.25,0,5.13-1.67,5.13-4.34v-.1c0-2.88-2-4.34-5.18-4.34H75.14V17.6Z"/><polygon class="cls-1" points="127.75 0.05 119.52 14.2 111.28 0.05 101.18 0.05 101.18 36.6 110.55 36.6 110.55 15.71 117.16 27.51 121.67 27.51 128.34 15.61 128.34 36.6 137.85 36.6 137.85 0.05 127.75 0.05"/><path class="cls-1" d="M49.24,0H40L25.33,36.6H35.39l2.46-6.52H51.16l2.51,6.52H63.93ZM40.66,22.19l3.9-10.39L48.4,22.19Z"/><path class="cls-1" d="M163.72,0h-9.23L139.81,36.6h10.05l2.46-6.52h13.32l2.51,6.52H178.4Zm-8.58,22.19L159,11.8l3.84,10.39Z"/><path class="cls-1" d="M148.26,48.57c-7.86-11.94-63.63-.52-63.63-.52-43.25,7.47-61.13,4.3-61.13,4.3,1.59,1.1,18.78,11.47,72.4,2.22,0,0,38.13-8,52.36-6"/></svg>