<svg width="16" height="16" viewBox="0 0 16 16" fill="none" xmlns="http://www.w3.org/2000/svg">
    <g clip-path="url(#clip0_560_505)">
        <path
            d="M7.56238 0C7.84376 0 8.12515 0 8.40654 0C8.46782 0.0096875 8.5291 0.0190625 8.59007 0.029375C9.10031 0.114375 9.62119 0.159375 10.1186 0.292188C11.7635 0.73125 13.1279 1.6275 14.2012 2.94531C15.269 4.25625 15.8671 5.75875 15.9799 7.45375C16.0446 8.42344 15.9499 9.37219 15.6663 10.2991C15.0826 12.2075 13.938 13.6972 12.2594 14.7712C11.3133 15.3766 10.2784 15.7572 9.16253 15.9094C8.92116 15.9422 8.67917 15.97 8.43749 16H7.56206C7.51141 15.99 7.46108 15.9784 7.41043 15.97C6.92081 15.8894 6.42307 15.8409 5.94284 15.7225C4.76507 15.4322 3.72394 14.8666 2.8013 14.0794C2.01654 13.4097 1.38217 12.6203 0.906313 11.7075C0.389811 10.7169 0.0921658 9.66469 0.0190051 8.54531C-0.0444634 7.57531 0.0458933 6.62563 0.334784 5.70031C1.03731 3.45 2.45988 1.80906 4.57435 0.770938C5.2897 0.419688 6.04757 0.193125 6.84015 0.09C7.08089 0.05875 7.32163 0.03 7.56269 0L7.56238 0ZM6.72509 5.74813C7.62178 5.76594 8.57318 5.83969 9.51458 6.02844C10.561 6.23781 11.5693 6.5475 12.5032 7.07719C12.6264 7.14687 12.7718 7.20062 12.9112 7.21344C13.2439 7.24344 13.5569 7.02219 13.6594 6.71625C13.7726 6.37813 13.6722 5.98594 13.3815 5.81563C13.0069 5.59625 12.6202 5.39187 12.2209 5.22156C11.2295 4.79875 10.1902 4.53438 9.12376 4.38781C8.55818 4.31031 7.98821 4.25906 7.41824 4.22375C7.00335 4.19812 6.58596 4.21812 6.16951 4.21875C5.30846 4.22 4.45805 4.32156 3.61826 4.50469C3.30624 4.57281 2.98952 4.6475 2.69688 4.77125C2.34514 4.92031 2.2082 5.37219 2.35546 5.7475C2.49178 6.09469 2.86196 6.29219 3.22838 6.19156C4.353 5.88281 5.50043 5.75594 6.72478 5.74781L6.72509 5.74813ZM6.51468 6.95719C5.41133 6.93813 4.38395 7.10625 3.37095 7.37875C2.96169 7.48906 2.75628 7.84094 2.87165 8.23656C2.97482 8.58969 3.32437 8.74813 3.72394 8.63156C4.38426 8.43906 5.06053 8.32938 5.74524 8.28438C6.4262 8.23969 7.10653 8.26062 7.78623 8.34C8.53598 8.4275 9.26665 8.58969 9.98074 8.83031C10.5523 9.02281 11.096 9.2775 11.6178 9.57875C11.8154 9.69281 12.0167 9.72437 12.2259 9.61625C12.4354 9.50781 12.5501 9.33813 12.5683 9.09875C12.5914 8.78906 12.4588 8.56844 12.1981 8.41687C11.5868 8.0625 10.9472 7.76687 10.2762 7.54781C9.03841 7.14406 7.76591 6.94719 6.51468 6.95719ZM11.5678 11.2534C11.5865 11.0019 11.4199 10.8616 11.2107 10.7394C9.81316 9.92344 8.29336 9.58063 6.68851 9.56281C5.91688 9.55438 5.15182 9.63219 4.39239 9.75844C4.08693 9.80937 3.78209 9.87781 3.4857 9.96625C3.23651 10.0406 3.11646 10.3428 3.19837 10.6094C3.27434 10.8559 3.51853 11.0059 3.76802 10.9528C4.65815 10.7634 5.55358 10.6266 6.46715 10.6166C7.28755 10.6078 8.09295 10.6984 8.88646 10.9044C9.57305 11.0828 10.2162 11.3656 10.8258 11.7228C11.1498 11.9125 11.6012 11.6891 11.5684 11.2534H11.5678Z"
            fill="#8C704C" />
    </g>
    <defs>
        <clipPath id="clip0_560_505">
            <rect width="16" height="16" fill="white" />
        </clipPath>
    </defs>
</svg>
    