<svg width="14" height="14" viewBox="0 0 14 14" fill="none" xmlns="http://www.w3.org/2000/svg">
    <g clip-path="url(#clip0_619_669)">
        <path
            d="M9.65456 3.42993H9.9871C10.0767 3.42993 10.15 3.35731 10.15 3.26705C10.15 3.17679 10.0774 3.10417 9.9871 3.10417H4.01221C3.92263 3.10417 3.84933 3.17679 3.84933 3.26705C3.84933 3.35731 3.92195 3.42993 4.01221 3.42993H4.34475C4.38887 4.0285 4.67933 6.11673 6.56532 6.9983C4.67594 7.88191 4.38819 9.97557 4.34475 10.5701H4.01221C3.92263 10.5701 3.84933 10.6427 3.84933 10.7329C3.84933 10.8232 3.92195 10.8958 4.01221 10.8958H9.9871C10.0767 10.8958 10.15 10.8232 10.15 10.7329C10.15 10.6427 10.0774 10.5701 9.9871 10.5701H9.65456C9.61113 9.97557 9.3227 7.88191 7.434 6.9983C9.31998 6.11605 9.61045 4.02782 9.65456 3.42993ZM9.32881 3.42993C9.30777 3.69528 9.23651 4.25042 8.99287 4.849H5.0078C4.76416 4.25042 4.69223 3.69528 4.67187 3.42993H9.32948H9.32881ZM4.67119 10.5674C4.68815 10.3529 4.73837 9.94774 4.88632 9.48354H6.05225C6.09162 9.48354 6.12894 9.46929 6.1588 9.4435L6.99966 8.7153L7.84051 9.4435C7.87037 9.46929 7.9077 9.48354 7.94706 9.48354H9.11299C9.26094 9.94774 9.31116 10.3529 9.32813 10.5674H4.67051H4.67119ZM8.99626 9.15779H8.00814L7.10621 8.37665C7.04513 8.32372 6.95419 8.32372 6.89311 8.37665L5.99117 9.15779H5.00305C5.3098 8.39905 5.89209 7.56905 6.99966 7.17136C8.10655 7.56905 8.68951 8.39973 8.99626 9.15779ZM6.99966 6.82592C6.05429 6.48592 5.49168 5.83101 5.15643 5.17407H8.84289C8.50763 5.83033 7.94503 6.48592 6.99966 6.82592Z"
            fill="white" />
        <path
            d="M6.99965 0.613505C7.16864 0.613505 7.30641 0.475738 7.30641 0.306753C7.30641 0.137767 7.16864 0 6.99965 0C6.83067 0 6.6929 0.137767 6.6929 0.306753C6.6929 0.475738 6.83067 0.613505 6.99965 0.613505Z"
            fill="white" />
        <path
            d="M4.79199 0.907366C4.8361 0.929761 4.88293 0.941299 4.93112 0.941299C4.96301 0.941299 4.99491 0.936548 5.02613 0.926368C5.10417 0.901258 5.16729 0.846965 5.20461 0.77367C5.24194 0.700376 5.24805 0.617579 5.22294 0.539534C5.19783 0.461489 5.14354 0.398374 5.07024 0.361047C4.99695 0.323721 4.91415 0.317613 4.8361 0.342724C4.75806 0.367834 4.69494 0.422127 4.65762 0.495421C4.62029 0.568716 4.61418 0.651512 4.63929 0.729558C4.6644 0.807603 4.7187 0.870718 4.79199 0.908044V0.907366Z"
            fill="white" />
        <path
            d="M3.11367 1.28198C3.03291 1.26909 2.95147 1.28877 2.88564 1.33695C2.81913 1.38514 2.7757 1.4564 2.7628 1.53716C2.74991 1.61792 2.76959 1.69936 2.81777 1.76519C2.86596 1.83169 2.93722 1.87513 3.01798 1.88802C3.03426 1.89074 3.05055 1.89209 3.06684 1.89209C3.13131 1.89209 3.19375 1.87173 3.24668 1.83373C3.31319 1.78555 3.35663 1.71429 3.36952 1.63353C3.38242 1.55277 3.36273 1.47133 3.31455 1.40482C3.26636 1.33831 3.19511 1.29488 3.11435 1.28198H3.11367Z"
            fill="white" />
        <path
            d="M1.40481 3.31389C1.4591 3.35325 1.52221 3.37225 1.58465 3.37225C1.67966 3.37225 1.77332 3.32814 1.83304 3.24602C1.93212 3.10893 1.90226 2.91687 1.76517 2.81779C1.62808 2.71802 1.43602 2.74856 1.33626 2.88565C1.23718 3.02274 1.26704 3.2148 1.40413 3.31389H1.40481Z"
            fill="white" />
        <path
            d="M0.728878 4.63997C0.568036 4.58772 0.3943 4.67594 0.342044 4.83678C0.289787 4.99762 0.378012 5.17136 0.538854 5.22362C0.570072 5.2338 0.601969 5.23855 0.633187 5.23855C0.762811 5.23855 0.882933 5.15575 0.925009 5.02681C0.95012 4.94876 0.944012 4.86596 0.906686 4.79267C0.86936 4.71937 0.806245 4.66576 0.728199 4.63997H0.728878Z"
            fill="white" />
        <path
            d="M0.613505 6.99965C0.613505 6.83067 0.475738 6.6929 0.306753 6.6929C0.137767 6.6929 0 6.83067 0 6.99965C0 7.16864 0.137767 7.30641 0.306753 7.30641C0.475738 7.30641 0.613505 7.16864 0.613505 6.99965Z"
            fill="white" />
        <path
            d="M0.77367 8.7947C0.700376 8.75738 0.61758 8.75127 0.539534 8.77638C0.461489 8.80149 0.398374 8.85578 0.361047 8.92908C0.323721 9.00237 0.317613 9.08517 0.342724 9.16321C0.3848 9.29284 0.505601 9.37495 0.634546 9.37495C0.665764 9.37495 0.697661 9.3702 0.728879 9.36002C0.806925 9.33491 0.87004 9.28062 0.907366 9.20732C0.944692 9.13403 0.9508 9.05123 0.92569 8.97319C0.900579 8.89514 0.846287 8.83203 0.772992 8.7947H0.77367Z"
            fill="white" />
        <path
            d="M1.40483 10.6854C1.26774 10.7852 1.23788 10.9773 1.33696 11.1143C1.39669 11.1971 1.49034 11.2406 1.58535 11.2406C1.64779 11.2406 1.7109 11.2216 1.7652 11.1822C1.8317 11.134 1.87514 11.0628 1.88803 10.982C1.90093 10.9012 1.88125 10.8198 1.83306 10.754C1.7333 10.6169 1.54124 10.587 1.40483 10.6861V10.6854Z"
            fill="white" />
        <path
            d="M3.246 12.1663C3.10891 12.0672 2.91685 12.0971 2.81777 12.2341C2.71868 12.3712 2.74855 12.5633 2.88563 12.6631C2.93857 12.7017 3.00101 12.7214 3.06548 12.7214C3.08177 12.7214 3.09805 12.7201 3.11434 12.7173C3.1951 12.7045 3.26636 12.661 3.31454 12.5945C3.41431 12.4574 3.38377 12.2654 3.24668 12.1656L3.246 12.1663Z"
            fill="white" />
        <path
            d="M5.02613 13.0736C4.94808 13.0485 4.86529 13.0546 4.79199 13.092C4.7187 13.1293 4.66508 13.1924 4.63929 13.2704C4.61418 13.3485 4.62029 13.4313 4.65762 13.5046C4.69494 13.5779 4.75806 13.6315 4.8361 13.6573C4.86732 13.6675 4.89922 13.6722 4.93112 13.6722C4.97862 13.6722 5.02613 13.6607 5.07024 13.6383C5.14354 13.601 5.19715 13.5378 5.22294 13.4598C5.24805 13.3817 5.24194 13.2989 5.20461 13.2257C5.16729 13.1524 5.10417 13.0987 5.02613 13.073V13.0736Z"
            fill="white" />
        <path
            d="M6.99965 13.3858C6.83067 13.3858 6.6929 13.5236 6.6929 13.6926C6.6929 13.8616 6.83067 13.9993 6.99965 13.9993C7.16864 13.9993 7.30641 13.8616 7.30641 13.6926C7.30641 13.5236 7.16864 13.3858 6.99965 13.3858Z"
            fill="white" />
        <path
            d="M9.20732 13.092C9.13403 13.0546 9.05123 13.0485 8.97319 13.0736C8.89514 13.0987 8.83203 13.153 8.7947 13.2263C8.75738 13.2996 8.75127 13.3824 8.77638 13.4605C8.80149 13.5385 8.85578 13.6016 8.92908 13.639C8.97319 13.6614 9.02002 13.6729 9.0682 13.6729C9.1001 13.6729 9.13199 13.6681 9.16321 13.658C9.24126 13.6328 9.30437 13.5786 9.3417 13.5053C9.37902 13.432 9.38513 13.3492 9.36002 13.2711C9.33491 13.1931 9.28062 13.13 9.20732 13.0926V13.092Z"
            fill="white" />
        <path
            d="M10.982 12.112C10.9013 12.0991 10.8198 12.1188 10.754 12.167C10.6875 12.2151 10.644 12.2864 10.6311 12.3672C10.6183 12.4479 10.6379 12.5294 10.6861 12.5952C10.7343 12.6617 10.8056 12.7051 10.8863 12.718C10.9026 12.7207 10.9189 12.7221 10.9352 12.7221C10.9997 12.7221 11.0621 12.7017 11.115 12.6637C11.2521 12.564 11.282 12.3719 11.1829 12.2355C11.1347 12.169 11.0635 12.1256 10.9827 12.1127L10.982 12.112Z"
            fill="white" />
        <path
            d="M12.5952 10.6854C12.4581 10.5864 12.266 10.6169 12.167 10.7533C12.0679 10.8904 12.0977 11.0825 12.2348 11.1815C12.2878 11.2202 12.3502 11.2399 12.4147 11.2399C12.4309 11.2399 12.4472 11.2386 12.4635 11.2358C12.5443 11.2229 12.6155 11.1795 12.6637 11.113C12.7635 10.9759 12.733 10.7839 12.5959 10.6841L12.5952 10.6854Z"
            fill="white" />
        <path
            d="M13.4605 8.77638C13.3824 8.75127 13.2996 8.75738 13.2263 8.7947C13.153 8.83203 13.0994 8.89514 13.0736 8.97319C13.0485 9.05123 13.0546 9.13403 13.0919 9.20732C13.1293 9.28062 13.1924 9.33423 13.2704 9.36002C13.3016 9.3702 13.3335 9.37495 13.3654 9.37495C13.4129 9.37495 13.4605 9.36342 13.5046 9.34102C13.5779 9.30369 13.6315 9.24058 13.6573 9.16253C13.7095 9.00169 13.6213 8.82796 13.4605 8.77638Z"
            fill="white" />
        <path
            d="M13.6933 6.6929C13.5243 6.6929 13.3865 6.83067 13.3865 6.99965C13.3865 7.16864 13.5243 7.30641 13.6933 7.30641C13.8622 7.30641 14 7.16864 14 6.99965C14 6.83067 13.8622 6.6929 13.6933 6.6929Z"
            fill="white" />
        <path
            d="M13.2263 5.20462C13.2704 5.22702 13.3173 5.23856 13.3654 5.23856C13.3973 5.23856 13.4292 5.2338 13.4605 5.22362C13.5385 5.19851 13.6016 5.14422 13.6389 5.07093C13.6763 4.99763 13.6824 4.91484 13.6573 4.83679C13.6322 4.75874 13.5779 4.69563 13.5046 4.6583C13.4313 4.62098 13.3485 4.61487 13.2704 4.63998C13.1924 4.66509 13.1293 4.71938 13.0919 4.79268C13.0546 4.86597 13.0485 4.94877 13.0736 5.02681C13.0987 5.10486 13.153 5.16797 13.2263 5.2053V5.20462Z"
            fill="white" />
        <path
            d="M12.4628 2.76282C12.3821 2.74992 12.3007 2.7696 12.2348 2.81779C12.1683 2.86597 12.1249 2.93723 12.112 3.01799C12.0991 3.09875 12.1188 3.18019 12.167 3.24602C12.2151 3.31253 12.2864 3.35596 12.3672 3.36886C12.3834 3.37157 12.3997 3.37293 12.416 3.37293C12.4805 3.37293 12.5429 3.35257 12.5959 3.31456C12.733 3.2148 12.7635 3.02274 12.6637 2.88633C12.6155 2.81982 12.5443 2.77639 12.4635 2.7635L12.4628 2.76282Z"
            fill="white" />
        <path
            d="M10.7533 1.83304C10.8076 1.87241 10.8707 1.89141 10.9332 1.89141C11.0282 1.89141 11.1218 1.84729 11.1815 1.76518C11.2806 1.62809 11.2508 1.43603 11.1137 1.33627C11.0472 1.28808 10.9664 1.2684 10.8856 1.2813C10.8049 1.29419 10.7336 1.33762 10.6854 1.40413C10.5864 1.54122 10.6162 1.73328 10.7533 1.83236V1.83304Z"
            fill="white" />
        <path
            d="M8.97319 0.92636C9.00441 0.93654 9.0363 0.941291 9.0682 0.941291C9.11571 0.941291 9.16321 0.929753 9.20732 0.907358C9.28062 0.870032 9.33423 0.806917 9.36002 0.728871C9.38513 0.650826 9.37902 0.56803 9.3417 0.494735C9.30437 0.42144 9.24126 0.367826 9.16321 0.342037C9.08517 0.316927 9.00237 0.323035 8.92908 0.360361C8.85578 0.397687 8.80217 0.460802 8.77638 0.538847C8.75127 0.616893 8.75738 0.699689 8.7947 0.772984C8.83203 0.846279 8.89514 0.899893 8.97319 0.925681V0.92636Z"
            fill="white" />
    </g>
    <defs>
        <clipPath id="clip0_619_669">
            <rect width="14" height="14" fill="white" />
        </clipPath>
    </defs>
</svg>
    