<svg width="60" height="7" viewBox="0 0 60 7" fill="none" xmlns="http://www.w3.org/2000/svg">
    <path
        d="M57.7487 2.28519C57.8208 2.28519 57.8913 2.28796 57.9633 2.28935C58.6734 2.30879 59.3518 2.35044 59.9999 2.41014L59.6672 2.08943C59.4339 1.92422 59.13 1.72569 58.7642 1.5216C58.4963 1.355 58.2255 1.20367 57.9389 1.10926C56.4957 0.472017 55.234 0.324853 53.7562 0.211009H53.7548L53.3328 0.167971C52.8215 0.116602 52.3073 0.0818939 51.7931 0.0638455C50.8612 0.0333021 49.3288 -0.00973641 48.407 0.00414697C48.2744 0.00414697 48.2039 0.00692364 48.2039 0.00692364C48.0613 0.00970032 47.9158 0.0138653 47.766 0.0180303C47.2101 0.0319137 46.6556 0.0541271 46.101 0.0818939C45.9901 0.0874472 45.8792 0.0930006 45.7654 0.098554C45.6531 0.104107 45.5422 0.109661 45.4299 0.116602C44.1336 0.191573 42.6774 0.306805 41.083 0.487289H41.0874C39.5563 0.653889 38.0282 0.851033 36.5029 1.06623C32.7941 1.58824 29.1069 2.2477 25.4083 2.84052C19.6946 3.75405 13.9449 4.36353 8.15778 4.55373C5.41257 4.64397 2.6616 4.52596 0.00280762 4.50375C1.25443 5.14377 2.72497 5.59082 4.23297 5.91708C8.5049 6.84032 12.8416 7.16519 17.2043 6.92501C21.1651 6.70704 25.1447 6.52378 29.0681 5.9976C34.7889 5.23124 40.4565 4.10391 46.1687 3.26535C49.3057 2.80443 52.4844 2.58646 55.6502 2.331C56.294 2.27963 56.9422 2.27408 57.5917 2.28241C57.645 2.28241 57.6983 2.2838 57.7516 2.28519H57.7487Z"
        fill="#8C704C" />
</svg>
    