<svg width="18" height="17" viewBox="0 0 18 17" fill="none" xmlns="http://www.w3.org/2000/svg">
    <path
        d="M8.6088 0C3.92071 0 0.118042 3.78879 0.118042 8.45977C0.118042 13.1307 3.92071 16.9195 8.6088 16.9195C13.2969 16.9195 17.0996 13.1307 17.0996 8.45977C17.0996 3.78879 13.2969 0 8.6088 0ZM11.9509 4.26813H10.958C9.98042 4.26813 9.67334 4.87495 9.67334 5.49707V6.97077H11.8587L11.5107 9.23997H9.67334V14.7319H7.20647V9.23997H5.20533V6.97077H7.20647V5.2421C7.20647 3.27376 8.38361 2.18761 10.1851 2.18761C11.0501 2.18761 11.9509 2.34059 11.9509 2.34059V4.27323V4.26813Z"
        fill="black" />
</svg>
    