<svg width="17" height="17" viewBox="0 0 17 17" fill="none" xmlns="http://www.w3.org/2000/svg">
    <path
        d="M8.54135 6.84326C7.6457 6.84326 6.91895 7.56737 6.91895 8.45975C6.91895 9.35213 7.6457 10.0762 8.54135 10.0762C9.437 10.0762 10.1638 9.35213 10.1638 8.45975C10.1638 7.56737 9.437 6.84326 8.54135 6.84326Z"
        fill="black" />
    <path
        d="M10.5527 4.2937H6.44294C5.27092 4.2937 4.31897 5.24217 4.31897 6.40992V10.5047C4.31897 11.6724 5.27092 12.6209 6.44294 12.6209H10.5527C11.7247 12.6209 12.6767 11.6724 12.6767 10.5047V6.40992C12.6767 5.24217 11.7247 4.2937 10.5527 4.2937ZM8.54132 10.9789C7.1441 10.9789 6.00791 9.84686 6.00791 8.45475C6.00791 7.06263 7.1441 5.93058 8.54132 5.93058C9.93853 5.93058 11.0747 7.06263 11.0747 8.45475C11.0747 9.84686 9.93853 10.9789 8.54132 10.9789ZM11.2232 6.35893C10.8905 6.35893 10.6192 6.08866 10.6192 5.75721C10.6192 5.42575 10.8905 5.15549 11.2232 5.15549C11.5558 5.15549 11.8271 5.42575 11.8271 5.75721C11.8271 6.08866 11.5558 6.35893 11.2232 6.35893Z"
        fill="black" />
    <path
        d="M8.5004 0C3.81232 0 0.00964355 3.78879 0.00964355 8.45977C0.00964355 13.1307 3.81232 16.9195 8.5004 16.9195C13.1885 16.9195 16.9912 13.1307 16.9912 8.45977C16.9912 3.78879 13.1885 0 8.5004 0ZM13.644 10.5046C13.644 12.2027 12.257 13.5846 10.5527 13.5846H6.44297C4.73867 13.5846 3.3517 12.2027 3.3517 10.5046V6.40984C3.3517 4.71177 4.73867 3.32986 6.44297 3.32986H10.5527C12.257 3.32986 13.644 4.71177 13.644 6.40984V10.5046Z"
        fill="black" />
</svg>
    