<svg width="17" height="17" viewBox="0 0 17 17" fill="none" xmlns="http://www.w3.org/2000/svg">
    <g clip-path="url(#clip0_858_205)">
        <path
            d="M8.03506 0C8.33403 0 8.633 0 8.93198 0C8.99709 0.010293 9.0622 0.0202539 9.12698 0.0312109C9.66912 0.121523 10.2226 0.169336 10.7511 0.310449C12.4987 0.776953 13.9484 1.72922 15.0889 3.12939C16.2233 4.52227 16.8588 6.11867 16.9787 7.91961C17.0475 8.9499 16.9468 9.95795 16.6455 10.9428C16.0253 12.9705 14.8091 14.5533 13.0256 15.6945C12.0204 16.3376 10.9208 16.742 9.73522 16.9037C9.47877 16.9386 9.22165 16.9681 8.96486 17H8.03472C7.98091 16.9894 7.92743 16.9771 7.87361 16.9681C7.35339 16.8825 6.82454 16.831 6.31429 16.7052C5.06292 16.3967 3.95672 15.7957 2.97641 14.9593C2.14261 14.2478 1.46859 13.4091 0.962989 12.4392C0.414206 11.3867 0.0979577 10.2687 0.0202244 9.0794C-0.0472109 8.04877 0.0487931 7.03973 0.35574 6.05658C1.10218 3.66563 2.61366 1.92213 4.86028 0.819121C5.62034 0.445918 6.42558 0.205195 7.26769 0.095625C7.52348 0.0624219 7.77927 0.031875 8.03539 0L8.03506 0ZM7.14544 6.10738C8.09817 6.12631 9.10904 6.20467 10.1093 6.40521C11.2211 6.62768 12.2924 6.95672 13.2847 7.51951C13.4156 7.59355 13.5701 7.65066 13.7182 7.66428C14.0717 7.69615 14.4042 7.46107 14.5132 7.13602C14.6334 6.77676 14.5268 6.36006 14.2178 6.1791C13.8199 5.94602 13.4089 5.72887 12.9847 5.54791C11.9314 5.09867 10.8271 4.81777 9.69403 4.66205C9.09309 4.57971 8.4875 4.52525 7.88191 4.48773C7.44109 4.46051 6.99762 4.48176 6.55513 4.48242C5.64027 4.48375 4.73671 4.59166 3.84444 4.78623C3.51291 4.85861 3.17639 4.93797 2.86546 5.06945C2.49174 5.22783 2.34624 5.70795 2.50271 6.10672C2.64754 6.47561 3.04086 6.68545 3.43019 6.57854C4.62509 6.25049 5.84424 6.11568 7.14511 6.10705L7.14544 6.10738ZM6.92188 7.39201C5.74956 7.37176 4.65798 7.55039 3.58167 7.83992C3.14683 7.95713 2.92858 8.331 3.05116 8.75135C3.16078 9.12654 3.53217 9.29488 3.95672 9.17103C4.65831 8.9665 5.37684 8.84996 6.10435 8.80215C6.82786 8.75467 7.55072 8.77691 8.27291 8.86125C9.06951 8.95422 9.84584 9.12654 10.6046 9.38221C11.2118 9.58674 11.7895 9.85734 12.3439 10.1774C12.5539 10.2986 12.7678 10.3321 12.9901 10.2173C13.2126 10.1021 13.3345 9.92176 13.3538 9.66742C13.3784 9.33838 13.2375 9.10396 12.9605 8.94293C12.311 8.56641 11.6314 8.25231 10.9185 8.01955C9.60334 7.59057 8.25131 7.38139 6.92188 7.39201ZM12.2908 11.9568C12.3107 11.6895 12.1337 11.5404 11.9114 11.4106C10.4265 10.5437 8.81172 10.1794 7.10658 10.1605C6.28672 10.1515 5.47384 10.2342 4.66695 10.3683C4.34239 10.4225 4.0185 10.4952 3.70359 10.5891C3.43883 10.6682 3.31126 10.9892 3.3983 11.2725C3.47902 11.5344 3.73847 11.6938 4.00356 11.6374C4.94931 11.4362 5.90071 11.2907 6.87138 11.2801C7.74306 11.2708 8.59879 11.3671 9.4419 11.5859C10.1714 11.7755 10.8547 12.076 11.5025 12.4555C11.8466 12.657 12.3263 12.4196 12.2915 11.9568H12.2908Z"
            fill="black" />
    </g>
    <defs>
        <clipPath id="clip0_858_205">
            <rect width="17" height="17" fill="white" />
        </clipPath>
    </defs>
</svg>
    