<svg width="17" height="18" viewBox="0 0 17 18" fill="none" xmlns="http://www.w3.org/2000/svg">
    <g clip-path="url(#clip0_858_189)">
    <path d="M10.4627 9.12397L7.80084 7.67576C7.69376 7.61457 7.31641 7.69106 7.31641 7.81854V10.6436C7.31641 10.7659 7.68866 10.8475 7.79574 10.7863L10.58 9.40953C10.6922 9.34834 10.58 9.18516 10.4627 9.12397Z" fill="black"/>
    <path d="M8.54021 0.735596C3.86924 0.735596 0.0804443 4.52439 0.0804443 9.19537C0.0804443 13.8663 3.86924 17.6551 8.54021 17.6551C13.2112 17.6551 17 13.8663 17 9.19537C17 4.52439 13.2112 0.735596 8.54021 0.735596ZM14.226 10.6385C14.226 11.9796 13.1398 13.0658 11.7987 13.0658H5.59281C4.25169 13.0658 3.16553 11.9796 3.16553 10.6385V7.75226C3.16553 6.41114 4.25169 5.32498 5.59281 5.32498H11.7987C13.1398 5.32498 14.226 6.41114 14.226 7.75226V10.6385Z" fill="black"/>
    </g>
    <defs>
    <clipPath id="clip0_858_189">
    <rect width="16.9195" height="16.9195" fill="white" transform="translate(0.0804443 0.735596)"/>
    </clipPath>
    </defs>
    </svg>
    